solid OpenSCAD_Model
  facet normal -0 0 1
    outer loop
      vertex 2 21.5 -8
      vertex 31 -2 -8
      vertex 31 21.5 -8
    endloop
  endfacet
  facet normal 0 0 1
    outer loop
      vertex 31 -2 -8
      vertex 2 21.5 -8
      vertex 2 -2 -8
    endloop
  endfacet
  facet normal 1 0 0
    outer loop
      vertex 31 21.5 -8
      vertex 31 20 -9.5
      vertex 31 21.5 -20.5
    endloop
  endfacet
  facet normal 1 0 0
    outer loop
      vertex 31 21.5 -8
      vertex 31 -0.5 -9.5
      vertex 31 20 -9.5
    endloop
  endfacet
  facet normal 1 0 0
    outer loop
      vertex 31 -0.5 -9.5
      vertex 31 -2 -8
      vertex 31 -0.5 -19
    endloop
  endfacet
  facet normal 1 -0 0
    outer loop
      vertex 31 -2 -8
      vertex 31 -0.5 -9.5
      vertex 31 21.5 -8
    endloop
  endfacet
  facet normal 1 -0 0
    outer loop
      vertex 31 20 -19
      vertex 31 21.5 -20.5
      vertex 31 20 -9.5
    endloop
  endfacet
  facet normal 1 0 0
    outer loop
      vertex 31 17.5 -20.5
      vertex 31 20 -19
      vertex 31 17.5 -19
    endloop
  endfacet
  facet normal 1 0 0
    outer loop
      vertex 31 20 -19
      vertex 31 17.5 -20.5
      vertex 31 21.5 -20.5
    endloop
  endfacet
  facet normal 1 -0 0
    outer loop
      vertex 31 -0.5 -19
      vertex 31 2 -20.5
      vertex 31 2 -19
    endloop
  endfacet
  facet normal 1 0 0
    outer loop
      vertex 31 -0.5 -19
      vertex 31 -2 -20.5
      vertex 31 2 -20.5
    endloop
  endfacet
  facet normal 1 0 0
    outer loop
      vertex 31 -2 -20.5
      vertex 31 -0.5 -19
      vertex 31 -2 -8
    endloop
  endfacet
  facet normal 0 0 -1
    outer loop
      vertex 31 -2 -20.5
      vertex 4 2 -20.5
      vertex 31 2 -20.5
    endloop
  endfacet
  facet normal -0 0 -1
    outer loop
      vertex 4 2 -20.5
      vertex 2 -2 -20.5
      vertex 4 17.5 -20.5
    endloop
  endfacet
  facet normal 0 0 -1
    outer loop
      vertex 2 -2 -20.5
      vertex 4 2 -20.5
      vertex 31 -2 -20.5
    endloop
  endfacet
  facet normal 0 0 -1
    outer loop
      vertex 4 17.5 -20.5
      vertex 31 21.5 -20.5
      vertex 31 17.5 -20.5
    endloop
  endfacet
  facet normal 0 0 -1
    outer loop
      vertex 4 17.5 -20.5
      vertex 2 21.5 -20.5
      vertex 31 21.5 -20.5
    endloop
  endfacet
  facet normal 0 0 -1
    outer loop
      vertex 2 21.5 -20.5
      vertex 4 17.5 -20.5
      vertex 2 -2 -20.5
    endloop
  endfacet
  facet normal 0 1 -0
    outer loop
      vertex 31 21.5 -20.5
      vertex 2 21.5 -8
      vertex 31 21.5 -8
    endloop
  endfacet
  facet normal 0 1 0
    outer loop
      vertex 2 21.5 -8
      vertex 31 21.5 -20.5
      vertex 2 21.5 -20.5
    endloop
  endfacet
  facet normal -1 0 0
    outer loop
      vertex 2 -2 -20.5
      vertex 2 21.5 -8
      vertex 2 21.5 -20.5
    endloop
  endfacet
  facet normal -1 -0 0
    outer loop
      vertex 2 21.5 -8
      vertex 2 -2 -20.5
      vertex 2 -2 -8
    endloop
  endfacet
  facet normal 0 -1 0
    outer loop
      vertex 2 -2 -20.5
      vertex 31 -2 -8
      vertex 2 -2 -8
    endloop
  endfacet
  facet normal 0 -1 -0
    outer loop
      vertex 31 -2 -8
      vertex 2 -2 -20.5
      vertex 31 -2 -20.5
    endloop
  endfacet
  facet normal 0 0 -1
    outer loop
      vertex 4 -0.5 -9.5
      vertex 31 20 -9.5
      vertex 31 -0.5 -9.5
    endloop
  endfacet
  facet normal -0 0 -1
    outer loop
      vertex 31 20 -9.5
      vertex 4 -0.5 -9.5
      vertex 4 20 -9.5
    endloop
  endfacet
  facet normal -0 0 1
    outer loop
      vertex 4 2 -19
      vertex 31 -0.5 -19
      vertex 31 2 -19
    endloop
  endfacet
  facet normal 0 0 1
    outer loop
      vertex 31 -0.5 -19
      vertex 4 2 -19
      vertex 4 -0.5 -19
    endloop
  endfacet
  facet normal -0 0 1
    outer loop
      vertex 4 20 -19
      vertex 31 17.5 -19
      vertex 31 20 -19
    endloop
  endfacet
  facet normal 0 0 1
    outer loop
      vertex 31 17.5 -19
      vertex 4 20 -19
      vertex 4 17.5 -19
    endloop
  endfacet
  facet normal 1 0 0
    outer loop
      vertex 4 20 -9.5
      vertex 4 17.5 -19
      vertex 4 20 -19
    endloop
  endfacet
  facet normal 1 0 0
    outer loop
      vertex 4 17.5 -19
      vertex 4 2 -19
      vertex 4 17.5 -20.5
    endloop
  endfacet
  facet normal 1 0 0
    outer loop
      vertex 4 20 -9.5
      vertex 4 2 -19
      vertex 4 17.5 -19
    endloop
  endfacet
  facet normal 1 -0 0
    outer loop
      vertex 4 -0.5 -9.5
      vertex 4 2 -19
      vertex 4 20 -9.5
    endloop
  endfacet
  facet normal 1 0 0
    outer loop
      vertex 4 2 -19
      vertex 4 -0.5 -9.5
      vertex 4 -0.5 -19
    endloop
  endfacet
  facet normal 1 0 0
    outer loop
      vertex 4 17.5 -20.5
      vertex 4 2 -19
      vertex 4 2 -20.5
    endloop
  endfacet
  facet normal 0 1 -0
    outer loop
      vertex 31 -0.5 -19
      vertex 4 -0.5 -9.5
      vertex 31 -0.5 -9.5
    endloop
  endfacet
  facet normal 0 1 0
    outer loop
      vertex 4 -0.5 -9.5
      vertex 31 -0.5 -19
      vertex 4 -0.5 -19
    endloop
  endfacet
  facet normal 0 -1 0
    outer loop
      vertex 4 20 -19
      vertex 31 20 -9.5
      vertex 4 20 -9.5
    endloop
  endfacet
  facet normal 0 -1 -0
    outer loop
      vertex 31 20 -9.5
      vertex 4 20 -19
      vertex 31 20 -19
    endloop
  endfacet
  facet normal 0 -1 0
    outer loop
      vertex 4 17.5 -20.5
      vertex 31 17.5 -19
      vertex 4 17.5 -19
    endloop
  endfacet
  facet normal 0 -1 -0
    outer loop
      vertex 31 17.5 -19
      vertex 4 17.5 -20.5
      vertex 31 17.5 -20.5
    endloop
  endfacet
  facet normal 0 1 -0
    outer loop
      vertex 31 2 -20.5
      vertex 4 2 -19
      vertex 31 2 -19
    endloop
  endfacet
  facet normal 0 1 0
    outer loop
      vertex 4 2 -19
      vertex 31 2 -20.5
      vertex 4 2 -20.5
    endloop
  endfacet
endsolid OpenSCAD_Model
