<?xml version="1.0" encoding="UTF-8" standalone="no"?>
<svg
   xmlns:dc="http://purl.org/dc/elements/1.1/"
   xmlns:cc="http://creativecommons.org/ns#"
   xmlns:rdf="http://www.w3.org/1999/02/22-rdf-syntax-ns#"
   xmlns:svg="http://www.w3.org/2000/svg"
   xmlns="http://www.w3.org/2000/svg"
   version="1.1"
   id="svg2"
   viewBox="0 0 744.09448819 1052.3622047"
   height="297mm"
   width="210mm">
  <defs
     id="defs4" />
  <metadata
     id="metadata7">
    <rdf:RDF>
      <cc:Work
         rdf:about="">
        <dc:format>image/svg+xml</dc:format>
        <dc:type
           rdf:resource="http://purl.org/dc/dcmitype/StillImage" />
        <dc:title></dc:title>
      </cc:Work>
    </rdf:RDF>
  </metadata>
  <g
     id="layer1">
<path id="fg-0x0" d="m 0,0 10,0 0,10 z" style="fill:#ff0000;fill-rule:evenodd;stroke:none" /><path id="bg-0x0" d="m 0,0 10,10 -10,0 z" style="fill:#ffffff;fill-rule:evenodd;stroke:none" /><path id="fg-0x1" d="m 0,10 10,0 -10,10 z" style="fill:#ffffff;fill-rule:evenodd;stroke:none" /><path id="bg-0x1" d="m 10,10 0,10 -10,0 z" style="fill:#ff0000;fill-rule:evenodd;stroke:none" /><path id="fg-0x2" d="m 0,20 10,0 0,10 z" style="fill:#ff0000;fill-rule:evenodd;stroke:none" /><path id="bg-0x2" d="m 0,20 10,10 -10,0 z" style="fill:#ffffff;fill-rule:evenodd;stroke:none" /><path id="fg-0x3" d="m 0,30 10,0 -10,10 z" style="fill:#ffffff;fill-rule:evenodd;stroke:none" /><path id="bg-0x3" d="m 10,30 0,10 -10,0 z" style="fill:#ff0000;fill-rule:evenodd;stroke:none" /><path id="fg-0x4" d="m 0,40 10,0 0,10 z" style="fill:#ff0000;fill-rule:evenodd;stroke:none" /><path id="bg-0x4" d="m 0,40 10,10 -10,0 z" style="fill:#ffffff;fill-rule:evenodd;stroke:none" /><path id="fg-0x5" d="m 0,50 10,0 -10,10 z" style="fill:#ffffff;fill-rule:evenodd;stroke:none" /><path id="bg-0x5" d="m 10,50 0,10 -10,0 z" style="fill:#ff0000;fill-rule:evenodd;stroke:none" /><path id="fg-0x6" d="m 0,60 10,0 0,10 z" style="fill:#ff0000;fill-rule:evenodd;stroke:none" /><path id="bg-0x6" d="m 0,60 10,10 -10,0 z" style="fill:#ffffff;fill-rule:evenodd;stroke:none" /><path id="fg-0x7" d="m 0,70 10,0 -10,10 z" style="fill:#ffffff;fill-rule:evenodd;stroke:none" /><path id="bg-0x7" d="m 10,70 0,10 -10,0 z" style="fill:#ff0000;fill-rule:evenodd;stroke:none" /><path id="fg-0x8" d="m 0,80 10,0 0,10 z" style="fill:#ff0000;fill-rule:evenodd;stroke:none" /><path id="bg-0x8" d="m 0,80 10,10 -10,0 z" style="fill:#ffffff;fill-rule:evenodd;stroke:none" /><path id="fg-0x9" d="m 0,90 10,0 -10,10 z" style="fill:#ffffff;fill-rule:evenodd;stroke:none" /><path id="bg-0x9" d="m 10,90 0,10 -10,0 z" style="fill:#ff0000;fill-rule:evenodd;stroke:none" /><path id="fg-0x10" d="m 0,100 10,0 0,10 z" style="fill:#ff0000;fill-rule:evenodd;stroke:none" /><path id="bg-0x10" d="m 0,100 10,10 -10,0 z" style="fill:#ffffff;fill-rule:evenodd;stroke:none" /><path id="fg-0x11" d="m 0,110 10,0 -10,10 z" style="fill:#ffffff;fill-rule:evenodd;stroke:none" /><path id="bg-0x11" d="m 10,110 0,10 -10,0 z" style="fill:#ff0000;fill-rule:evenodd;stroke:none" /><path id="fg-0x12" d="m 0,120 10,0 0,10 z" style="fill:#ff0000;fill-rule:evenodd;stroke:none" /><path id="bg-0x12" d="m 0,120 10,10 -10,0 z" style="fill:#ffffff;fill-rule:evenodd;stroke:none" /><path id="fg-0x13" d="m 0,130 10,0 -10,10 z" style="fill:#ffffff;fill-rule:evenodd;stroke:none" /><path id="bg-0x13" d="m 10,130 0,10 -10,0 z" style="fill:#ff0000;fill-rule:evenodd;stroke:none" /><path id="fg-0x14" d="m 0,140 10,0 0,10 z" style="fill:#ff0000;fill-rule:evenodd;stroke:none" /><path id="bg-0x14" d="m 0,140 10,10 -10,0 z" style="fill:#ffffff;fill-rule:evenodd;stroke:none" /><path id="fg-0x15" d="m 0,150 10,0 -10,10 z" style="fill:#ffffff;fill-rule:evenodd;stroke:none" /><path id="bg-0x15" d="m 10,150 0,10 -10,0 z" style="fill:#ff0000;fill-rule:evenodd;stroke:none" /><path id="fg-0x16" d="m 0,160 10,0 0,10 z" style="fill:#ff0000;fill-rule:evenodd;stroke:none" /><path id="bg-0x16" d="m 0,160 10,10 -10,0 z" style="fill:#ffffff;fill-rule:evenodd;stroke:none" /><path id="fg-0x17" d="m 0,170 10,0 -10,10 z" style="fill:#ffffff;fill-rule:evenodd;stroke:none" /><path id="bg-0x17" d="m 10,170 0,10 -10,0 z" style="fill:#ff0000;fill-rule:evenodd;stroke:none" /><path id="fg-0x18" d="m 0,180 10,0 0,10 z" style="fill:#ff0000;fill-rule:evenodd;stroke:none" /><path id="bg-0x18" d="m 0,180 10,10 -10,0 z" style="fill:#ffffff;fill-rule:evenodd;stroke:none" /><path id="fg-0x19" d="m 0,190 10,0 -10,10 z" style="fill:#ffffff;fill-rule:evenodd;stroke:none" /><path id="bg-0x19" d="m 10,190 0,10 -10,0 z" style="fill:#ff0000;fill-rule:evenodd;stroke:none" /><path id="fg-0x20" d="m 0,200 10,0 0,10 z" style="fill:#ff0000;fill-rule:evenodd;stroke:none" /><path id="bg-0x20" d="m 0,200 10,10 -10,0 z" style="fill:#ffffff;fill-rule:evenodd;stroke:none" /><path id="fg-0x21" d="m 0,210 10,0 -10,10 z" style="fill:#ffffff;fill-rule:evenodd;stroke:none" /><path id="bg-0x21" d="m 10,210 0,10 -10,0 z" style="fill:#ff0000;fill-rule:evenodd;stroke:none" /><path id="fg-0x22" d="m 0,220 10,0 0,10 z" style="fill:#ff0000;fill-rule:evenodd;stroke:none" /><path id="bg-0x22" d="m 0,220 10,10 -10,0 z" style="fill:#ffffff;fill-rule:evenodd;stroke:none" /><path id="fg-0x23" d="m 0,230 10,0 -10,10 z" style="fill:#ffffff;fill-rule:evenodd;stroke:none" /><path id="bg-0x23" d="m 10,230 0,10 -10,0 z" style="fill:#ff0000;fill-rule:evenodd;stroke:none" /><path id="fg-1x0" d="m 10,0 10,0 -10,10 z" style="fill:#ff0000;fill-rule:evenodd;stroke:none" /><path id="bg-1x0" d="m 20,0 0,10 -10,0 z" style="fill:#0000ff;fill-rule:evenodd;stroke:none" /><path id="fg-1x1" d="m 10,10 10,0 0,10 z" style="fill:#0000ff;fill-rule:evenodd;stroke:none" /><path id="bg-1x1" d="m 10,10 10,10 -10,0 z" style="fill:#ff0000;fill-rule:evenodd;stroke:none" /><path id="fg-1x2" d="m 10,20 10,0 -10,10 z" style="fill:#ff0000;fill-rule:evenodd;stroke:none" /><path id="bg-1x2" d="m 20,20 0,10 -10,0 z" style="fill:#0000ff;fill-rule:evenodd;stroke:none" /><path id="fg-1x3" d="m 10,30 10,0 0,10 z" style="fill:#0000ff;fill-rule:evenodd;stroke:none" /><path id="bg-1x3" d="m 10,30 10,10 -10,0 z" style="fill:#ff0000;fill-rule:evenodd;stroke:none" /><path id="fg-1x4" d="m 10,40 10,0 -10,10 z" style="fill:#ff0000;fill-rule:evenodd;stroke:none" /><path id="bg-1x4" d="m 20,40 0,10 -10,0 z" style="fill:#0000ff;fill-rule:evenodd;stroke:none" /><path id="fg-1x5" d="m 10,50 10,0 0,10 z" style="fill:#0000ff;fill-rule:evenodd;stroke:none" /><path id="bg-1x5" d="m 10,50 10,10 -10,0 z" style="fill:#ff0000;fill-rule:evenodd;stroke:none" /><path id="fg-1x6" d="m 10,60 10,0 -10,10 z" style="fill:#ff0000;fill-rule:evenodd;stroke:none" /><path id="bg-1x6" d="m 20,60 0,10 -10,0 z" style="fill:#0000ff;fill-rule:evenodd;stroke:none" /><path id="fg-1x7" d="m 10,70 10,0 0,10 z" style="fill:#0000ff;fill-rule:evenodd;stroke:none" /><path id="bg-1x7" d="m 10,70 10,10 -10,0 z" style="fill:#ff0000;fill-rule:evenodd;stroke:none" /><path id="fg-1x8" d="m 10,80 10,0 -10,10 z" style="fill:#ff0000;fill-rule:evenodd;stroke:none" /><path id="bg-1x8" d="m 20,80 0,10 -10,0 z" style="fill:#0000ff;fill-rule:evenodd;stroke:none" /><path id="fg-1x9" d="m 10,90 10,0 0,10 z" style="fill:#0000ff;fill-rule:evenodd;stroke:none" /><path id="bg-1x9" d="m 10,90 10,10 -10,0 z" style="fill:#ff0000;fill-rule:evenodd;stroke:none" /><path id="fg-1x10" d="m 10,100 10,0 -10,10 z" style="fill:#ff0000;fill-rule:evenodd;stroke:none" /><path id="bg-1x10" d="m 20,100 0,10 -10,0 z" style="fill:#0000ff;fill-rule:evenodd;stroke:none" /><path id="fg-1x11" d="m 10,110 10,0 0,10 z" style="fill:#0000ff;fill-rule:evenodd;stroke:none" /><path id="bg-1x11" d="m 10,110 10,10 -10,0 z" style="fill:#ff0000;fill-rule:evenodd;stroke:none" /><path id="fg-1x12" d="m 10,120 10,0 -10,10 z" style="fill:#ff0000;fill-rule:evenodd;stroke:none" /><path id="bg-1x12" d="m 20,120 0,10 -10,0 z" style="fill:#0000ff;fill-rule:evenodd;stroke:none" /><path id="fg-1x13" d="m 10,130 10,0 0,10 z" style="fill:#0000ff;fill-rule:evenodd;stroke:none" /><path id="bg-1x13" d="m 10,130 10,10 -10,0 z" style="fill:#ff0000;fill-rule:evenodd;stroke:none" /><path id="fg-1x14" d="m 10,140 10,0 -10,10 z" style="fill:#ff0000;fill-rule:evenodd;stroke:none" /><path id="bg-1x14" d="m 20,140 0,10 -10,0 z" style="fill:#0000ff;fill-rule:evenodd;stroke:none" /><path id="fg-1x15" d="m 10,150 10,0 0,10 z" style="fill:#0000ff;fill-rule:evenodd;stroke:none" /><path id="bg-1x15" d="m 10,150 10,10 -10,0 z" style="fill:#ff0000;fill-rule:evenodd;stroke:none" /><path id="fg-1x16" d="m 10,160 10,0 -10,10 z" style="fill:#ff0000;fill-rule:evenodd;stroke:none" /><path id="bg-1x16" d="m 20,160 0,10 -10,0 z" style="fill:#0000ff;fill-rule:evenodd;stroke:none" /><path id="fg-1x17" d="m 10,170 10,0 0,10 z" style="fill:#0000ff;fill-rule:evenodd;stroke:none" /><path id="bg-1x17" d="m 10,170 10,10 -10,0 z" style="fill:#ff0000;fill-rule:evenodd;stroke:none" /><path id="fg-1x18" d="m 10,180 10,0 -10,10 z" style="fill:#ff0000;fill-rule:evenodd;stroke:none" /><path id="bg-1x18" d="m 20,180 0,10 -10,0 z" style="fill:#0000ff;fill-rule:evenodd;stroke:none" /><path id="fg-1x19" d="m 10,190 10,0 0,10 z" style="fill:#0000ff;fill-rule:evenodd;stroke:none" /><path id="bg-1x19" d="m 10,190 10,10 -10,0 z" style="fill:#ff0000;fill-rule:evenodd;stroke:none" /><path id="fg-1x20" d="m 10,200 10,0 -10,10 z" style="fill:#ff0000;fill-rule:evenodd;stroke:none" /><path id="bg-1x20" d="m 20,200 0,10 -10,0 z" style="fill:#0000ff;fill-rule:evenodd;stroke:none" /><path id="fg-1x21" d="m 10,210 10,0 0,10 z" style="fill:#0000ff;fill-rule:evenodd;stroke:none" /><path id="bg-1x21" d="m 10,210 10,10 -10,0 z" style="fill:#ff0000;fill-rule:evenodd;stroke:none" /><path id="fg-1x22" d="m 10,220 10,0 -10,10 z" style="fill:#ff0000;fill-rule:evenodd;stroke:none" /><path id="bg-1x22" d="m 20,220 0,10 -10,0 z" style="fill:#0000ff;fill-rule:evenodd;stroke:none" /><path id="fg-1x23" d="m 10,230 10,0 0,10 z" style="fill:#0000ff;fill-rule:evenodd;stroke:none" /><path id="bg-1x23" d="m 10,230 10,10 -10,0 z" style="fill:#ff0000;fill-rule:evenodd;stroke:none" /><path id="fg-2x0" d="m 20,0 10,0 0,10 z" style="fill:#ff0000;fill-rule:evenodd;stroke:none" /><path id="bg-2x0" d="m 20,0 10,10 -10,0 z" style="fill:#ffffff;fill-rule:evenodd;stroke:none" /><path id="fg-2x1" d="m 20,10 10,0 -10,10 z" style="fill:#ffffff;fill-rule:evenodd;stroke:none" /><path id="bg-2x1" d="m 30,10 0,10 -10,0 z" style="fill:#ff0000;fill-rule:evenodd;stroke:none" /><path id="fg-2x2" d="m 20,20 10,0 0,10 z" style="fill:#ff0000;fill-rule:evenodd;stroke:none" /><path id="bg-2x2" d="m 20,20 10,10 -10,0 z" style="fill:#ffffff;fill-rule:evenodd;stroke:none" /><path id="fg-2x3" d="m 20,30 10,0 -10,10 z" style="fill:#ffffff;fill-rule:evenodd;stroke:none" /><path id="bg-2x3" d="m 30,30 0,10 -10,0 z" style="fill:#ff0000;fill-rule:evenodd;stroke:none" /><path id="fg-2x4" d="m 20,40 10,0 0,10 z" style="fill:#ff0000;fill-rule:evenodd;stroke:none" /><path id="bg-2x4" d="m 20,40 10,10 -10,0 z" style="fill:#ffffff;fill-rule:evenodd;stroke:none" /><path id="fg-2x5" d="m 20,50 10,0 -10,10 z" style="fill:#ffffff;fill-rule:evenodd;stroke:none" /><path id="bg-2x5" d="m 30,50 0,10 -10,0 z" style="fill:#ff0000;fill-rule:evenodd;stroke:none" /><path id="fg-2x6" d="m 20,60 10,0 0,10 z" style="fill:#ff0000;fill-rule:evenodd;stroke:none" /><path id="bg-2x6" d="m 20,60 10,10 -10,0 z" style="fill:#ffffff;fill-rule:evenodd;stroke:none" /><path id="fg-2x7" d="m 20,70 10,0 -10,10 z" style="fill:#ffffff;fill-rule:evenodd;stroke:none" /><path id="bg-2x7" d="m 30,70 0,10 -10,0 z" style="fill:#ff0000;fill-rule:evenodd;stroke:none" /><path id="fg-2x8" d="m 20,80 10,0 0,10 z" style="fill:#ff0000;fill-rule:evenodd;stroke:none" /><path id="bg-2x8" d="m 20,80 10,10 -10,0 z" style="fill:#ffffff;fill-rule:evenodd;stroke:none" /><path id="fg-2x9" d="m 20,90 10,0 -10,10 z" style="fill:#ffffff;fill-rule:evenodd;stroke:none" /><path id="bg-2x9" d="m 30,90 0,10 -10,0 z" style="fill:#ff0000;fill-rule:evenodd;stroke:none" /><path id="fg-2x10" d="m 20,100 10,0 0,10 z" style="fill:#ff0000;fill-rule:evenodd;stroke:none" /><path id="bg-2x10" d="m 20,100 10,10 -10,0 z" style="fill:#ffffff;fill-rule:evenodd;stroke:none" /><path id="fg-2x11" d="m 20,110 10,0 -10,10 z" style="fill:#ffffff;fill-rule:evenodd;stroke:none" /><path id="bg-2x11" d="m 30,110 0,10 -10,0 z" style="fill:#ff0000;fill-rule:evenodd;stroke:none" /><path id="fg-2x12" d="m 20,120 10,0 0,10 z" style="fill:#ff0000;fill-rule:evenodd;stroke:none" /><path id="bg-2x12" d="m 20,120 10,10 -10,0 z" style="fill:#ffffff;fill-rule:evenodd;stroke:none" /><path id="fg-2x13" d="m 20,130 10,0 -10,10 z" style="fill:#ffffff;fill-rule:evenodd;stroke:none" /><path id="bg-2x13" d="m 30,130 0,10 -10,0 z" style="fill:#ff0000;fill-rule:evenodd;stroke:none" /><path id="fg-2x14" d="m 20,140 10,0 0,10 z" style="fill:#ff0000;fill-rule:evenodd;stroke:none" /><path id="bg-2x14" d="m 20,140 10,10 -10,0 z" style="fill:#ffffff;fill-rule:evenodd;stroke:none" /><path id="fg-2x15" d="m 20,150 10,0 -10,10 z" style="fill:#ffffff;fill-rule:evenodd;stroke:none" /><path id="bg-2x15" d="m 30,150 0,10 -10,0 z" style="fill:#ff0000;fill-rule:evenodd;stroke:none" /><path id="fg-2x16" d="m 20,160 10,0 0,10 z" style="fill:#ff0000;fill-rule:evenodd;stroke:none" /><path id="bg-2x16" d="m 20,160 10,10 -10,0 z" style="fill:#ffffff;fill-rule:evenodd;stroke:none" /><path id="fg-2x17" d="m 20,170 10,0 -10,10 z" style="fill:#ffffff;fill-rule:evenodd;stroke:none" /><path id="bg-2x17" d="m 30,170 0,10 -10,0 z" style="fill:#ff0000;fill-rule:evenodd;stroke:none" /><path id="fg-2x18" d="m 20,180 10,0 0,10 z" style="fill:#ff0000;fill-rule:evenodd;stroke:none" /><path id="bg-2x18" d="m 20,180 10,10 -10,0 z" style="fill:#ffffff;fill-rule:evenodd;stroke:none" /><path id="fg-2x19" d="m 20,190 10,0 -10,10 z" style="fill:#ffffff;fill-rule:evenodd;stroke:none" /><path id="bg-2x19" d="m 30,190 0,10 -10,0 z" style="fill:#ff0000;fill-rule:evenodd;stroke:none" /><path id="fg-2x20" d="m 20,200 10,0 0,10 z" style="fill:#ff0000;fill-rule:evenodd;stroke:none" /><path id="bg-2x20" d="m 20,200 10,10 -10,0 z" style="fill:#ffffff;fill-rule:evenodd;stroke:none" /><path id="fg-2x21" d="m 20,210 10,0 -10,10 z" style="fill:#ffffff;fill-rule:evenodd;stroke:none" /><path id="bg-2x21" d="m 30,210 0,10 -10,0 z" style="fill:#ff0000;fill-rule:evenodd;stroke:none" /><path id="fg-2x22" d="m 20,220 10,0 0,10 z" style="fill:#ff0000;fill-rule:evenodd;stroke:none" /><path id="bg-2x22" d="m 20,220 10,10 -10,0 z" style="fill:#ffffff;fill-rule:evenodd;stroke:none" /><path id="fg-2x23" d="m 20,230 10,0 -10,10 z" style="fill:#ffffff;fill-rule:evenodd;stroke:none" /><path id="bg-2x23" d="m 30,230 0,10 -10,0 z" style="fill:#ff0000;fill-rule:evenodd;stroke:none" /></g>
</svg>
